# xmcd
#
# Track frame offsets:
#	150
#	4818
#	18234
#	31908
#	43701
#	55397
#	59827
#	72555
#	86633
#	103001
#	108929
#	119266
#	134914
#	141841
#	153325
#	164757
#	177234
#	190092
#	194532
#	200531
#	207029
#	215842
#	224749
#	229666
#	237697
#	251092
#
# Disc length: 3499 seconds
#
# Revision: 0
# Processed by: cddbd v1.4PL0 Copyright (c) Steve Scherf et al.
# Submitted via: EasyCDDAExtractor 4.6.9.1
#
DISCID=9d0da91a
DTITLE=Jimmy Martin - The Louisiana Hayride Archives
DYEAR=1900
DGENRE=Country
TTITLE0=Cripple Creek
TTITLE1=Hit Parade Of Love (1/18/58)
TTITLE2=Hit Parade Of Love (2/15/58)
TTITLE3=Hit Parade Of Love (4/26/58)
TTITLE4=Ho Honey Ho
TTITLE5=John Henry
TTITLE6=Ocean Of Diamonds (4/26/58)
TTITLE7=Ocean Of Diamonds (6/14/58)
TTITLE8=Ocean Of Diamonds (7/19/58)
TTITLE9=Pike County Breakdown
TTITLE10=Rock Hearts
TTITLE11=Ruby Honey Are You Mad At Your Man
TTITLE12=Shortenin Bread
TTITLE13=Skip Hop And Wobble
TTITLE14=While I was Praying Somebody Touched Me
TTITLE15=Sophronie (3/29/58)
TTITLE16=Sophronie (5/31/58)
TTITLE17=Sophronie (7/12/58)
TTITLE18=Sophronie (3/29/58)
TTITLE19=Old Joe Clark
TTITLE20=On The Sunny Side Of The Mountain
TTITLE21=Train 45 (4/26/58)
TTITLE22=Train 45 (6/28/58)
TTITLE23=Someday We'll Meet Again Sweetheart
TTITLE24=When The Savior Reached Down His Hand For Me
TTITLE25=Your A Lost Ball
EXTD=
EXTT0=
EXTT1=
EXTT2=
EXTT3=
EXTT4=
EXTT5=
EXTT6=
EXTT7=
EXTT8=
EXTT9=
EXTT10=
EXTT11=
EXTT12=
EXTT13=
EXTT14=
EXTT15=
EXTT16=
EXTT17=
EXTT18=
EXTT19=
EXTT20=
EXTT21=
EXTT22=
EXTT23=
EXTT24=
EXTT25=
PLAYORDER=
